<mxfile host="Electron" modified="2023-08-02T15:10:39.299Z" agent="Mozilla/5.0 (X11; Linux x86_64) AppleWebKit/537.36 (KHTML, like Gecko) draw.io/21.6.5 Chrome/114.0.5735.243 Electron/25.3.1 Safari/537.36" etag="8BMfJaPpKnDdM0SBkniC" version="21.6.5" type="device">
  <diagram name="Page-1" id="-R44UBZWm9Cj-Sst1RRg">
    <mxGraphModel dx="1114" dy="1194" grid="1" gridSize="10" guides="1" tooltips="1" connect="1" arrows="1" fold="1" page="1" pageScale="1" pageWidth="850" pageHeight="1100" math="0" shadow="0">
      <root>
        <mxCell id="0" />
        <mxCell id="1" parent="0" />
        <mxCell id="8GMj7mD5KwRelM5cx4Xz-1" value="" style="rounded=0;whiteSpace=wrap;html=1;dashed=1;strokeWidth=2;" vertex="1" parent="1">
          <mxGeometry x="450" y="670" width="290" height="110" as="geometry" />
        </mxCell>
        <mxCell id="8GMj7mD5KwRelM5cx4Xz-2" value="Active&lt;br&gt;&lt;font style=&quot;border-color: var(--border-color); font-size: 9px;&quot;&gt;RAM: N&lt;br style=&quot;border-color: var(--border-color);&quot;&gt;&lt;/font&gt;&lt;font style=&quot;font-size: 10px;&quot;&gt;CPU: N&lt;/font&gt;" style="rounded=1;whiteSpace=wrap;html=1;fillColor=#99CCFF;" vertex="1" parent="1">
          <mxGeometry x="940" y="690" width="120" height="60" as="geometry" />
        </mxCell>
        <mxCell id="8GMj7mD5KwRelM5cx4Xz-3" value="Inactive&lt;br&gt;&lt;font style=&quot;border-color: var(--border-color); font-size: 9px;&quot;&gt;RAM: Y&lt;br style=&quot;border-color: var(--border-color);&quot;&gt;&lt;/font&gt;&lt;font style=&quot;font-size: 10px;&quot;&gt;CPU: N&lt;/font&gt;" style="rounded=1;whiteSpace=wrap;html=1;fillColor=#99CCFF;" vertex="1" parent="1">
          <mxGeometry x="940" y="530" width="120" height="60" as="geometry" />
        </mxCell>
        <mxCell id="8GMj7mD5KwRelM5cx4Xz-4" value="Unconfigured&lt;br style=&quot;font-size: 11px;&quot;&gt;&lt;font style=&quot;font-size: 9px;&quot;&gt;&lt;font style=&quot;font-size: 9px;&quot;&gt;RAM: N&lt;br&gt;&lt;/font&gt;CPU: N&lt;/font&gt;" style="rounded=1;whiteSpace=wrap;html=1;fillColor=#99CCFF;strokeColor=#36393d;" vertex="1" parent="1">
          <mxGeometry x="940" y="370" width="120" height="60" as="geometry" />
        </mxCell>
        <mxCell id="8GMj7mD5KwRelM5cx4Xz-5" style="edgeStyle=orthogonalEdgeStyle;rounded=0;orthogonalLoop=1;jettySize=auto;html=1;exitX=0;exitY=0.75;exitDx=0;exitDy=0;entryX=0.75;entryY=0;entryDx=0;entryDy=0;strokeWidth=2;strokeColor=#808080;" edge="1" parent="1" source="8GMj7mD5KwRelM5cx4Xz-9" target="8GMj7mD5KwRelM5cx4Xz-3">
          <mxGeometry relative="1" as="geometry" />
        </mxCell>
        <mxCell id="8GMj7mD5KwRelM5cx4Xz-6" value="SUCCESS" style="edgeLabel;html=1;align=center;verticalAlign=middle;resizable=0;points=[];fontColor=#808080;" vertex="1" connectable="0" parent="8GMj7mD5KwRelM5cx4Xz-5">
          <mxGeometry x="-0.1059" y="-3" relative="1" as="geometry">
            <mxPoint as="offset" />
          </mxGeometry>
        </mxCell>
        <mxCell id="8GMj7mD5KwRelM5cx4Xz-7" style="edgeStyle=orthogonalEdgeStyle;rounded=0;orthogonalLoop=1;jettySize=auto;html=1;exitX=0;exitY=0.25;exitDx=0;exitDy=0;entryX=0.75;entryY=1;entryDx=0;entryDy=0;strokeWidth=2;strokeColor=#CC0000;" edge="1" parent="1" source="8GMj7mD5KwRelM5cx4Xz-9" target="8GMj7mD5KwRelM5cx4Xz-4">
          <mxGeometry relative="1" as="geometry">
            <Array as="points">
              <mxPoint x="1030" y="465" />
            </Array>
          </mxGeometry>
        </mxCell>
        <mxCell id="8GMj7mD5KwRelM5cx4Xz-8" value="&lt;font color=&quot;#cc0000&quot;&gt;FAILURE&lt;/font&gt;" style="edgeLabel;html=1;align=center;verticalAlign=middle;resizable=0;points=[];" vertex="1" connectable="0" parent="8GMj7mD5KwRelM5cx4Xz-7">
          <mxGeometry x="-0.1255" y="1" relative="1" as="geometry">
            <mxPoint as="offset" />
          </mxGeometry>
        </mxCell>
        <mxCell id="8GMj7mD5KwRelM5cx4Xz-9" value="Configuring" style="rounded=1;whiteSpace=wrap;html=1;fillColor=#ffffcc;strokeColor=#36393d;" vertex="1" parent="1">
          <mxGeometry x="1080" y="450" width="120" height="60" as="geometry" />
        </mxCell>
        <mxCell id="8GMj7mD5KwRelM5cx4Xz-10" style="edgeStyle=orthogonalEdgeStyle;rounded=0;orthogonalLoop=1;jettySize=auto;html=1;exitX=1;exitY=0.5;exitDx=0;exitDy=0;entryX=0.5;entryY=0;entryDx=0;entryDy=0;strokeWidth=2;" edge="1" parent="1" source="8GMj7mD5KwRelM5cx4Xz-4" target="8GMj7mD5KwRelM5cx4Xz-9">
          <mxGeometry relative="1" as="geometry">
            <mxPoint x="1120" y="399.8333333333335" as="targetPoint" />
          </mxGeometry>
        </mxCell>
        <mxCell id="8GMj7mD5KwRelM5cx4Xz-11" value="T:CONFIGURE" style="edgeLabel;html=1;align=center;verticalAlign=middle;resizable=0;points=[];" vertex="1" connectable="0" parent="8GMj7mD5KwRelM5cx4Xz-10">
          <mxGeometry x="0.0564" y="-2" relative="1" as="geometry">
            <mxPoint x="12" y="-2" as="offset" />
          </mxGeometry>
        </mxCell>
        <mxCell id="8GMj7mD5KwRelM5cx4Xz-12" style="edgeStyle=orthogonalEdgeStyle;rounded=0;orthogonalLoop=1;jettySize=auto;html=1;exitX=0;exitY=0.75;exitDx=0;exitDy=0;entryX=0.75;entryY=0;entryDx=0;entryDy=0;strokeWidth=2;strokeColor=#808080;" edge="1" parent="1" source="8GMj7mD5KwRelM5cx4Xz-16" target="8GMj7mD5KwRelM5cx4Xz-2">
          <mxGeometry relative="1" as="geometry" />
        </mxCell>
        <mxCell id="8GMj7mD5KwRelM5cx4Xz-13" value="SUCCESS" style="edgeLabel;html=1;align=center;verticalAlign=middle;resizable=0;points=[];fontColor=#808080;" vertex="1" connectable="0" parent="8GMj7mD5KwRelM5cx4Xz-12">
          <mxGeometry x="-0.1233" relative="1" as="geometry">
            <mxPoint as="offset" />
          </mxGeometry>
        </mxCell>
        <mxCell id="8GMj7mD5KwRelM5cx4Xz-14" style="edgeStyle=orthogonalEdgeStyle;rounded=0;orthogonalLoop=1;jettySize=auto;html=1;exitX=0;exitY=0.25;exitDx=0;exitDy=0;entryX=0.75;entryY=1;entryDx=0;entryDy=0;strokeWidth=2;strokeColor=#CC0000;" edge="1" parent="1" source="8GMj7mD5KwRelM5cx4Xz-16" target="8GMj7mD5KwRelM5cx4Xz-3">
          <mxGeometry relative="1" as="geometry" />
        </mxCell>
        <mxCell id="8GMj7mD5KwRelM5cx4Xz-15" value="&lt;font color=&quot;#cc0000&quot;&gt;FAILURE&lt;/font&gt;" style="edgeLabel;html=1;align=center;verticalAlign=middle;resizable=0;points=[];" vertex="1" connectable="0" parent="8GMj7mD5KwRelM5cx4Xz-14">
          <mxGeometry x="-0.1023" relative="1" as="geometry">
            <mxPoint as="offset" />
          </mxGeometry>
        </mxCell>
        <mxCell id="8GMj7mD5KwRelM5cx4Xz-16" value="Activating" style="rounded=1;whiteSpace=wrap;html=1;fillColor=#ffffcc;" vertex="1" parent="1">
          <mxGeometry x="1080" y="610" width="120" height="60" as="geometry" />
        </mxCell>
        <mxCell id="8GMj7mD5KwRelM5cx4Xz-17" style="edgeStyle=orthogonalEdgeStyle;rounded=0;orthogonalLoop=1;jettySize=auto;html=1;exitX=1;exitY=0.5;exitDx=0;exitDy=0;entryX=0.5;entryY=0;entryDx=0;entryDy=0;strokeWidth=2;" edge="1" parent="1" source="8GMj7mD5KwRelM5cx4Xz-3" target="8GMj7mD5KwRelM5cx4Xz-16">
          <mxGeometry relative="1" as="geometry" />
        </mxCell>
        <mxCell id="8GMj7mD5KwRelM5cx4Xz-18" value="T:ACTIVATE" style="edgeLabel;html=1;align=center;verticalAlign=middle;resizable=0;points=[];" vertex="1" connectable="0" parent="8GMj7mD5KwRelM5cx4Xz-17">
          <mxGeometry x="-0.2819" y="1" relative="1" as="geometry">
            <mxPoint x="33" y="1" as="offset" />
          </mxGeometry>
        </mxCell>
        <mxCell id="8GMj7mD5KwRelM5cx4Xz-19" style="edgeStyle=orthogonalEdgeStyle;rounded=0;orthogonalLoop=1;jettySize=auto;html=1;exitX=1;exitY=0.25;exitDx=0;exitDy=0;entryX=0.25;entryY=1;entryDx=0;entryDy=0;strokeWidth=2;strokeColor=#808080;" edge="1" parent="1" source="8GMj7mD5KwRelM5cx4Xz-23" target="8GMj7mD5KwRelM5cx4Xz-3">
          <mxGeometry relative="1" as="geometry" />
        </mxCell>
        <mxCell id="8GMj7mD5KwRelM5cx4Xz-20" value="SUCCESS" style="edgeLabel;html=1;align=center;verticalAlign=middle;resizable=0;points=[];fontColor=#808080;" vertex="1" connectable="0" parent="8GMj7mD5KwRelM5cx4Xz-19">
          <mxGeometry x="-0.1933" y="1" relative="1" as="geometry">
            <mxPoint as="offset" />
          </mxGeometry>
        </mxCell>
        <mxCell id="8GMj7mD5KwRelM5cx4Xz-21" style="edgeStyle=orthogonalEdgeStyle;rounded=0;orthogonalLoop=1;jettySize=auto;html=1;exitX=1;exitY=0.75;exitDx=0;exitDy=0;entryX=0.25;entryY=0;entryDx=0;entryDy=0;strokeWidth=2;strokeColor=#CC0000;" edge="1" parent="1" source="8GMj7mD5KwRelM5cx4Xz-23" target="8GMj7mD5KwRelM5cx4Xz-2">
          <mxGeometry relative="1" as="geometry" />
        </mxCell>
        <mxCell id="8GMj7mD5KwRelM5cx4Xz-22" value="&lt;font color=&quot;#cc0000&quot;&gt;FAILURE&lt;/font&gt;" style="edgeLabel;html=1;align=center;verticalAlign=middle;resizable=0;points=[];" vertex="1" connectable="0" parent="8GMj7mD5KwRelM5cx4Xz-21">
          <mxGeometry x="-0.3569" y="-1" relative="1" as="geometry">
            <mxPoint x="9" y="-1" as="offset" />
          </mxGeometry>
        </mxCell>
        <mxCell id="8GMj7mD5KwRelM5cx4Xz-23" value="Deactivating" style="rounded=1;whiteSpace=wrap;html=1;fillColor=#ffffcc;" vertex="1" parent="1">
          <mxGeometry x="800" y="610" width="120" height="60" as="geometry" />
        </mxCell>
        <mxCell id="8GMj7mD5KwRelM5cx4Xz-24" style="edgeStyle=orthogonalEdgeStyle;rounded=0;orthogonalLoop=1;jettySize=auto;html=1;exitX=0;exitY=0.5;exitDx=0;exitDy=0;entryX=0.5;entryY=1;entryDx=0;entryDy=0;strokeWidth=2;" edge="1" parent="1" source="8GMj7mD5KwRelM5cx4Xz-2" target="8GMj7mD5KwRelM5cx4Xz-23">
          <mxGeometry relative="1" as="geometry" />
        </mxCell>
        <mxCell id="8GMj7mD5KwRelM5cx4Xz-25" value="T:DEACTIVATE" style="edgeLabel;html=1;align=center;verticalAlign=middle;resizable=0;points=[];" vertex="1" connectable="0" parent="8GMj7mD5KwRelM5cx4Xz-24">
          <mxGeometry x="-0.2419" y="2" relative="1" as="geometry">
            <mxPoint x="-21" y="-2" as="offset" />
          </mxGeometry>
        </mxCell>
        <mxCell id="8GMj7mD5KwRelM5cx4Xz-26" value="&lt;font color=&quot;#808080&quot;&gt;SUCCESS&lt;/font&gt;" style="edgeStyle=orthogonalEdgeStyle;rounded=0;orthogonalLoop=1;jettySize=auto;html=1;exitX=1;exitY=0.25;exitDx=0;exitDy=0;entryX=0.25;entryY=1;entryDx=0;entryDy=0;strokeWidth=2;strokeColor=#808080;" edge="1" parent="1" source="8GMj7mD5KwRelM5cx4Xz-28" target="8GMj7mD5KwRelM5cx4Xz-4">
          <mxGeometry x="0.2" relative="1" as="geometry">
            <mxPoint as="offset" />
          </mxGeometry>
        </mxCell>
        <mxCell id="8GMj7mD5KwRelM5cx4Xz-27" value="&lt;font color=&quot;#cc0000&quot;&gt;FAILURE&lt;/font&gt;" style="edgeStyle=orthogonalEdgeStyle;rounded=0;orthogonalLoop=1;jettySize=auto;html=1;exitX=1;exitY=0.75;exitDx=0;exitDy=0;entryX=0.25;entryY=0;entryDx=0;entryDy=0;strokeWidth=2;strokeColor=#CC0000;" edge="1" parent="1" source="8GMj7mD5KwRelM5cx4Xz-28" target="8GMj7mD5KwRelM5cx4Xz-3">
          <mxGeometry relative="1" as="geometry">
            <mxPoint as="offset" />
          </mxGeometry>
        </mxCell>
        <mxCell id="8GMj7mD5KwRelM5cx4Xz-28" value="CleaningUp" style="rounded=1;whiteSpace=wrap;html=1;fillColor=#ffffcc;" vertex="1" parent="1">
          <mxGeometry x="810" y="450" width="120" height="60" as="geometry" />
        </mxCell>
        <mxCell id="8GMj7mD5KwRelM5cx4Xz-29" style="edgeStyle=orthogonalEdgeStyle;rounded=0;orthogonalLoop=1;jettySize=auto;html=1;exitX=0;exitY=0.5;exitDx=0;exitDy=0;entryX=0.25;entryY=1;entryDx=0;entryDy=0;strokeWidth=2;" edge="1" parent="1" source="8GMj7mD5KwRelM5cx4Xz-3" target="8GMj7mD5KwRelM5cx4Xz-28">
          <mxGeometry relative="1" as="geometry" />
        </mxCell>
        <mxCell id="8GMj7mD5KwRelM5cx4Xz-30" value="T:CLEANUP" style="edgeLabel;html=1;align=center;verticalAlign=middle;resizable=0;points=[];" vertex="1" connectable="0" parent="8GMj7mD5KwRelM5cx4Xz-29">
          <mxGeometry x="-0.0949" y="1" relative="1" as="geometry">
            <mxPoint x="-42" y="-1" as="offset" />
          </mxGeometry>
        </mxCell>
        <mxCell id="8GMj7mD5KwRelM5cx4Xz-31" style="edgeStyle=orthogonalEdgeStyle;rounded=0;orthogonalLoop=1;jettySize=auto;html=1;exitX=0.75;exitY=1;exitDx=0;exitDy=0;entryX=0.5;entryY=0;entryDx=0;entryDy=0;fillColor=#f8cecc;strokeColor=#CC0000;strokeWidth=2;" edge="1" parent="1" source="8GMj7mD5KwRelM5cx4Xz-33" target="8GMj7mD5KwRelM5cx4Xz-47">
          <mxGeometry relative="1" as="geometry" />
        </mxCell>
        <mxCell id="8GMj7mD5KwRelM5cx4Xz-32" value="FAILURE" style="edgeLabel;html=1;align=center;verticalAlign=middle;resizable=0;points=[];fontColor=#CC0000;" vertex="1" connectable="0" parent="8GMj7mD5KwRelM5cx4Xz-31">
          <mxGeometry x="-0.332" relative="1" as="geometry">
            <mxPoint as="offset" />
          </mxGeometry>
        </mxCell>
        <mxCell id="8GMj7mD5KwRelM5cx4Xz-33" value="ShuttingDown" style="rounded=1;whiteSpace=wrap;html=1;fillColor=#ffffcc;" vertex="1" parent="1">
          <mxGeometry x="420" y="500" width="120" height="60" as="geometry" />
        </mxCell>
        <mxCell id="8GMj7mD5KwRelM5cx4Xz-34" style="edgeStyle=orthogonalEdgeStyle;rounded=0;orthogonalLoop=1;jettySize=auto;html=1;exitX=1;exitY=0.5;exitDx=0;exitDy=0;entryX=0;entryY=0.25;entryDx=0;entryDy=0;strokeWidth=2;strokeColor=#808080;" edge="1" parent="1" source="8GMj7mD5KwRelM5cx4Xz-36" target="8GMj7mD5KwRelM5cx4Xz-4">
          <mxGeometry relative="1" as="geometry">
            <Array as="points">
              <mxPoint x="770" y="530" />
              <mxPoint x="770" y="385" />
            </Array>
          </mxGeometry>
        </mxCell>
        <mxCell id="8GMj7mD5KwRelM5cx4Xz-35" value="SUCCESS" style="edgeLabel;html=1;align=center;verticalAlign=middle;resizable=0;points=[];fontColor=#808080;" vertex="1" connectable="0" parent="8GMj7mD5KwRelM5cx4Xz-34">
          <mxGeometry x="0.5456" y="-2" relative="1" as="geometry">
            <mxPoint x="-87" y="63" as="offset" />
          </mxGeometry>
        </mxCell>
        <mxCell id="8GMj7mD5KwRelM5cx4Xz-36" value="ErrorProcessing" style="rounded=1;whiteSpace=wrap;html=1;fillColor=#ffffcc;" vertex="1" parent="1">
          <mxGeometry x="600" y="500" width="120" height="60" as="geometry" />
        </mxCell>
        <mxCell id="8GMj7mD5KwRelM5cx4Xz-37" value="&lt;font color=&quot;#ff00ff&quot;&gt;ERROR&lt;/font&gt;" style="edgeStyle=orthogonalEdgeStyle;rounded=0;orthogonalLoop=1;jettySize=auto;html=1;exitX=1;exitY=0.5;exitDx=0;exitDy=0;strokeWidth=2;strokeColor=#FF00FF;entryX=0;entryY=0.5;entryDx=0;entryDy=0;" edge="1" parent="1" source="8GMj7mD5KwRelM5cx4Xz-33" target="8GMj7mD5KwRelM5cx4Xz-36">
          <mxGeometry x="-0.1" y="-11" relative="1" as="geometry">
            <mxPoint as="offset" />
            <mxPoint x="506.99" y="491" as="sourcePoint" />
            <mxPoint x="563.0185714285715" y="151" as="targetPoint" />
          </mxGeometry>
        </mxCell>
        <mxCell id="8GMj7mD5KwRelM5cx4Xz-38" value="Finalized" style="rounded=1;whiteSpace=wrap;html=1;fillColor=#99CCFF;" vertex="1" parent="1">
          <mxGeometry x="390" y="356" width="120" height="60" as="geometry" />
        </mxCell>
        <mxCell id="8GMj7mD5KwRelM5cx4Xz-39" style="edgeStyle=orthogonalEdgeStyle;rounded=0;orthogonalLoop=1;jettySize=auto;html=1;exitX=0.25;exitY=0;exitDx=0;exitDy=0;strokeWidth=2;strokeColor=#808080;entryX=0.494;entryY=0.969;entryDx=0;entryDy=0;entryPerimeter=0;" edge="1" parent="1" source="8GMj7mD5KwRelM5cx4Xz-33" target="8GMj7mD5KwRelM5cx4Xz-38">
          <mxGeometry relative="1" as="geometry">
            <Array as="points">
              <mxPoint x="450" y="414" />
            </Array>
            <mxPoint x="380" y="440" as="targetPoint" />
          </mxGeometry>
        </mxCell>
        <mxCell id="8GMj7mD5KwRelM5cx4Xz-40" value="SUCCESS" style="edgeLabel;html=1;align=center;verticalAlign=middle;resizable=0;points=[];fontColor=#808080;" vertex="1" connectable="0" parent="8GMj7mD5KwRelM5cx4Xz-39">
          <mxGeometry x="0.1241" y="2" relative="1" as="geometry">
            <mxPoint x="2" y="8" as="offset" />
          </mxGeometry>
        </mxCell>
        <mxCell id="8GMj7mD5KwRelM5cx4Xz-41" style="edgeStyle=orthogonalEdgeStyle;rounded=0;orthogonalLoop=1;jettySize=auto;html=1;exitX=0.25;exitY=0;exitDx=0;exitDy=0;strokeColor=#CC0000;strokeWidth=2;entryX=0.5;entryY=1;entryDx=0;entryDy=0;" edge="1" parent="1" source="8GMj7mD5KwRelM5cx4Xz-36" target="8GMj7mD5KwRelM5cx4Xz-68">
          <mxGeometry relative="1" as="geometry">
            <Array as="points">
              <mxPoint x="630" y="450" />
              <mxPoint x="580" y="450" />
            </Array>
            <mxPoint x="664" y="500" as="sourcePoint" />
            <mxPoint x="590" y="430" as="targetPoint" />
          </mxGeometry>
        </mxCell>
        <mxCell id="8GMj7mD5KwRelM5cx4Xz-42" value="FAILURE" style="edgeLabel;html=1;align=center;verticalAlign=middle;resizable=0;points=[];fontColor=#CC0000;" vertex="1" connectable="0" parent="8GMj7mD5KwRelM5cx4Xz-41">
          <mxGeometry x="-0.2567" y="1" relative="1" as="geometry">
            <mxPoint x="-19" as="offset" />
          </mxGeometry>
        </mxCell>
        <mxCell id="8GMj7mD5KwRelM5cx4Xz-43" style="edgeStyle=orthogonalEdgeStyle;rounded=0;orthogonalLoop=1;jettySize=auto;html=1;exitX=0.75;exitY=0;exitDx=0;exitDy=0;entryX=0.25;entryY=1;entryDx=0;entryDy=0;strokeWidth=2;fillColor=#ffcc99;strokeColor=#FF00FF;" edge="1" parent="1" source="8GMj7mD5KwRelM5cx4Xz-47" target="8GMj7mD5KwRelM5cx4Xz-36">
          <mxGeometry relative="1" as="geometry">
            <Array as="points">
              <mxPoint x="565" y="600" />
              <mxPoint x="630" y="600" />
            </Array>
          </mxGeometry>
        </mxCell>
        <mxCell id="8GMj7mD5KwRelM5cx4Xz-44" value="&lt;font color=&quot;#ff00ff&quot;&gt;RAISE_ERROR&lt;/font&gt;" style="edgeLabel;html=1;align=center;verticalAlign=middle;resizable=0;points=[];" vertex="1" connectable="0" parent="8GMj7mD5KwRelM5cx4Xz-43">
          <mxGeometry x="0.1725" y="1" relative="1" as="geometry">
            <mxPoint x="-7" y="31" as="offset" />
          </mxGeometry>
        </mxCell>
        <mxCell id="8GMj7mD5KwRelM5cx4Xz-45" style="edgeStyle=orthogonalEdgeStyle;rounded=0;orthogonalLoop=1;jettySize=auto;html=1;exitX=0;exitY=0.5;exitDx=0;exitDy=0;entryX=0.5;entryY=1;entryDx=0;entryDy=0;strokeWidth=2;" edge="1" parent="1" source="8GMj7mD5KwRelM5cx4Xz-47" target="8GMj7mD5KwRelM5cx4Xz-33">
          <mxGeometry relative="1" as="geometry">
            <Array as="points">
              <mxPoint x="430" y="725" />
              <mxPoint x="430" y="620" />
              <mxPoint x="480" y="620" />
            </Array>
          </mxGeometry>
        </mxCell>
        <mxCell id="8GMj7mD5KwRelM5cx4Xz-46" value="T:SHUTDOWN" style="edgeLabel;html=1;align=center;verticalAlign=middle;resizable=0;points=[];" vertex="1" connectable="0" parent="8GMj7mD5KwRelM5cx4Xz-45">
          <mxGeometry x="-0.1889" y="1" relative="1" as="geometry">
            <mxPoint x="1" y="-44" as="offset" />
          </mxGeometry>
        </mxCell>
        <mxCell id="8GMj7mD5KwRelM5cx4Xz-47" value="{Unconfigured,&lt;br&gt;Inactive,&lt;br&gt;Active}" style="rounded=1;whiteSpace=wrap;html=1;fillColor=#99CCFF;strokeColor=#36393d;" vertex="1" parent="1">
          <mxGeometry x="475" y="695" width="120" height="60" as="geometry" />
        </mxCell>
        <mxCell id="8GMj7mD5KwRelM5cx4Xz-48" value="&lt;font color=&quot;#ff00ff&quot;&gt;ERROR&lt;/font&gt;" style="edgeStyle=orthogonalEdgeStyle;rounded=0;orthogonalLoop=1;jettySize=auto;html=1;exitX=0.5;exitY=0;exitDx=0;exitDy=0;entryX=0.75;entryY=1;entryDx=0;entryDy=0;strokeWidth=2;strokeColor=#FF00FF;" edge="1" parent="1" source="8GMj7mD5KwRelM5cx4Xz-49" target="8GMj7mD5KwRelM5cx4Xz-36">
          <mxGeometry relative="1" as="geometry">
            <Array as="points">
              <mxPoint x="670" y="625" />
              <mxPoint x="690" y="625" />
            </Array>
          </mxGeometry>
        </mxCell>
        <mxCell id="8GMj7mD5KwRelM5cx4Xz-49" value="{Configuring, Activating, Deactivating,&lt;br&gt;CleaningUp}" style="rounded=1;whiteSpace=wrap;html=1;fillColor=#ffffcc;" vertex="1" parent="1">
          <mxGeometry x="610" y="690" width="120" height="60" as="geometry" />
        </mxCell>
        <mxCell id="8GMj7mD5KwRelM5cx4Xz-50" style="edgeStyle=orthogonalEdgeStyle;rounded=0;orthogonalLoop=1;jettySize=auto;html=1;exitX=0.5;exitY=1;exitDx=0;exitDy=0;strokeWidth=2;" edge="1" parent="1" source="8GMj7mD5KwRelM5cx4Xz-51" target="8GMj7mD5KwRelM5cx4Xz-4">
          <mxGeometry relative="1" as="geometry" />
        </mxCell>
        <mxCell id="8GMj7mD5KwRelM5cx4Xz-51" value="create()" style="ellipse;whiteSpace=wrap;html=1;aspect=fixed;fillColor=#eeeeee;strokeColor=#36393d;" vertex="1" parent="1">
          <mxGeometry x="975" y="260" width="50" height="50" as="geometry" />
        </mxCell>
        <mxCell id="8GMj7mD5KwRelM5cx4Xz-52" value="destroy()" style="ellipse;whiteSpace=wrap;html=1;aspect=fixed;fillColor=#eeeeee;strokeColor=#36393d;" vertex="1" parent="1">
          <mxGeometry x="425" y="250" width="50" height="50" as="geometry" />
        </mxCell>
        <mxCell id="8GMj7mD5KwRelM5cx4Xz-53" value="RAM: Y&lt;br&gt;CPU: Y" style="text;html=1;align=center;verticalAlign=middle;resizable=0;points=[];autosize=1;strokeColor=none;fillColor=none;" vertex="1" parent="1">
          <mxGeometry x="970" y="750" width="60" height="40" as="geometry" />
        </mxCell>
        <mxCell id="8GMj7mD5KwRelM5cx4Xz-54" style="edgeStyle=orthogonalEdgeStyle;rounded=0;orthogonalLoop=1;jettySize=auto;html=1;exitX=0.5;exitY=0;exitDx=0;exitDy=0;entryX=0.5;entryY=1;entryDx=0;entryDy=0;strokeWidth=2;" edge="1" parent="1" source="8GMj7mD5KwRelM5cx4Xz-38" target="8GMj7mD5KwRelM5cx4Xz-52">
          <mxGeometry relative="1" as="geometry">
            <mxPoint x="485.3333333333335" y="323" as="targetPoint" />
          </mxGeometry>
        </mxCell>
        <mxCell id="8GMj7mD5KwRelM5cx4Xz-55" value="T:DESTROY" style="edgeLabel;html=1;align=center;verticalAlign=middle;resizable=0;points=[];" vertex="1" connectable="0" parent="8GMj7mD5KwRelM5cx4Xz-54">
          <mxGeometry x="-0.2143" relative="1" as="geometry">
            <mxPoint as="offset" />
          </mxGeometry>
        </mxCell>
        <mxCell id="8GMj7mD5KwRelM5cx4Xz-56" value="&lt;font color=&quot;#ff00ff&quot;&gt;ERROR&lt;/font&gt;" style="edgeStyle=orthogonalEdgeStyle;rounded=0;orthogonalLoop=1;jettySize=auto;html=1;exitX=0.75;exitY=0;exitDx=0;exitDy=0;strokeWidth=2;strokeColor=#FF00FF;entryX=0.5;entryY=1;entryDx=0;entryDy=0;" edge="1" parent="1" source="8GMj7mD5KwRelM5cx4Xz-36" target="8GMj7mD5KwRelM5cx4Xz-67">
          <mxGeometry x="-0.2079" relative="1" as="geometry">
            <mxPoint x="664" y="500" as="sourcePoint" />
            <mxPoint x="652" y="290" as="targetPoint" />
            <mxPoint as="offset" />
            <Array as="points">
              <mxPoint x="692" y="500" />
            </Array>
          </mxGeometry>
        </mxCell>
        <mxCell id="8GMj7mD5KwRelM5cx4Xz-57" value="" style="endArrow=none;html=1;rounded=0;strokeWidth=2;dashed=1;" edge="1" parent="1">
          <mxGeometry width="50" height="50" relative="1" as="geometry">
            <mxPoint x="780" y="830" as="sourcePoint" />
            <mxPoint x="420" y="830" as="targetPoint" />
          </mxGeometry>
        </mxCell>
        <mxCell id="8GMj7mD5KwRelM5cx4Xz-58" value="Error Processing and Shutting Down" style="text;html=1;align=center;verticalAlign=middle;resizable=0;points=[];autosize=1;strokeColor=none;fillColor=none;" vertex="1" parent="1">
          <mxGeometry x="485" y="830" width="220" height="30" as="geometry" />
        </mxCell>
        <mxCell id="8GMj7mD5KwRelM5cx4Xz-59" value="" style="endArrow=none;html=1;rounded=0;strokeWidth=2;" edge="1" parent="1">
          <mxGeometry width="50" height="50" relative="1" as="geometry">
            <mxPoint x="780" y="810" as="sourcePoint" />
            <mxPoint x="780" y="850" as="targetPoint" />
          </mxGeometry>
        </mxCell>
        <mxCell id="8GMj7mD5KwRelM5cx4Xz-60" value="" style="endArrow=none;html=1;rounded=0;strokeWidth=2;" edge="1" parent="1">
          <mxGeometry width="50" height="50" relative="1" as="geometry">
            <mxPoint x="420" y="810" as="sourcePoint" />
            <mxPoint x="420" y="850" as="targetPoint" />
          </mxGeometry>
        </mxCell>
        <mxCell id="8GMj7mD5KwRelM5cx4Xz-61" value="" style="endArrow=none;html=1;strokeWidth=2;rounded=0;dashed=1;" edge="1" parent="1">
          <mxGeometry width="50" height="50" relative="1" as="geometry">
            <mxPoint x="1200" y="830" as="sourcePoint" />
            <mxPoint x="802" y="830" as="targetPoint" />
          </mxGeometry>
        </mxCell>
        <mxCell id="8GMj7mD5KwRelM5cx4Xz-62" value="Main Up/Down Node Cycle" style="text;html=1;align=center;verticalAlign=middle;resizable=0;points=[];autosize=1;strokeColor=none;fillColor=none;" vertex="1" parent="1">
          <mxGeometry x="915" y="830" width="170" height="30" as="geometry" />
        </mxCell>
        <mxCell id="8GMj7mD5KwRelM5cx4Xz-63" value="" style="endArrow=none;html=1;rounded=0;strokeWidth=2;" edge="1" parent="1">
          <mxGeometry width="50" height="50" relative="1" as="geometry">
            <mxPoint x="1200" y="810" as="sourcePoint" />
            <mxPoint x="1200" y="850" as="targetPoint" />
          </mxGeometry>
        </mxCell>
        <mxCell id="8GMj7mD5KwRelM5cx4Xz-64" value="" style="endArrow=none;html=1;rounded=0;strokeWidth=2;" edge="1" parent="1">
          <mxGeometry width="50" height="50" relative="1" as="geometry">
            <mxPoint x="802" y="810" as="sourcePoint" />
            <mxPoint x="802" y="850" as="targetPoint" />
          </mxGeometry>
        </mxCell>
        <mxCell id="8GMj7mD5KwRelM5cx4Xz-65" value="LifecycleNode StateMachine" style="rounded=0;whiteSpace=wrap;html=1;fontSize=14;fillColor=#eeeeee;strokeColor=#36393d;fontStyle=1" vertex="1" parent="1">
          <mxGeometry x="690" y="260" width="210" height="30" as="geometry" />
        </mxCell>
        <mxCell id="8GMj7mD5KwRelM5cx4Xz-66" value="Lifecycle Node State Machine" style="rounded=0;whiteSpace=wrap;html=1;fontSize=14;fillColor=#eeeeee;strokeColor=#36393d;fontStyle=1" vertex="1" parent="1">
          <mxGeometry x="690" y="260" width="210" height="37" as="geometry" />
        </mxCell>
        <mxCell id="8GMj7mD5KwRelM5cx4Xz-67" value="throw runtime error" style="ellipse;whiteSpace=wrap;html=1;aspect=fixed;fillColor=#f8cecc;strokeColor=#b85450;" vertex="1" parent="1">
          <mxGeometry x="664" y="356" width="56" height="56" as="geometry" />
        </mxCell>
        <mxCell id="8GMj7mD5KwRelM5cx4Xz-68" value="UncleanFinalized" style="rounded=1;whiteSpace=wrap;html=1;fillColor=#99CCFF;" vertex="1" parent="1">
          <mxGeometry x="520" y="356" width="120" height="60" as="geometry" />
        </mxCell>
      </root>
    </mxGraphModel>
  </diagram>
</mxfile>
